In this lush, lurid adaptation of the 1957 Tennessee Williams one-act, Elizabeth Taylor and Katharine Hepburn play a seemingly insane, young New Orleans debutante and the wealthy aunt who wants to lobotomize her. Dr. John Cukrowicz (Montgomery Clift) is a gifted Chicago brain surgeon stymied by the primitive operating conditions at the New Orleans asylum where he works. Society matron Violet Venable (Hepburn) offers a solution in the form of a million-dollar grant -- as long as Cukrowicz will treat her niece, Catherine (Taylor). Catherine, it seems, has been institutionalized since the sudden death of her cousin, Violet's son, Sebastian, overseas the previous summer. As the young doctor tries to get to the bottom of what happened to Catherine, Violet's steely demeanor and devotion to Sebastian present a formidable barrier. Catherine herself doesn't offer much help, her recollections jumbled by medication and the trauma of Sebastian's demise. Under pressure to seal the deal and cut into Catherine's brain, Cukrowicz's principles (and attraction to the young woman) prevent him from proceeding until he uncovers what actually happened to Sebastian. In his memoirs, Gore Vidal claims to have written the screenplay for Suddenly, Last Summer  single-handedly, although Williams took half the credit. Vidal toned down the original play's allusions to pedophilia, cannibalism, and incest, but the film nonetheless provoked heated controversy. As for the cast, an unhappy Hepburn reportedly was threatened by the attention lavished on Taylor by director Joseph L. Mankiewicz, whom Hepburn had hired to produce The Philadelphia Story  two decades earlier. Mankiewicz, for his part, allegedly hated Clift, whose drinking and partial paralysis from an auto accident prevented him from working more than half a day at a time. 

   General
      Complete name : Suddenly, Last Summer.avi
      Format : AVI
      Format/Info : Audio Video Interleave
      File size : 1.35 GiB
      Duration : 1h 49mn
      Overall bit rate : 1 767 Kbps
      Writing library : VirtualDub build 32661/release
      Copyright : HeDgEhOt®
   Video #0
      ID : 0
      Format : MPEG-4 Visual
      Format profile : AdvancedSimple@L5
      Format settings, BVOP : Yes
      Format settings, QPel : No
      Format settings, GMC : No warppoints
      Format settings, Matrix : Custom
      Codec ID : XVID
      Codec ID/Hint : XviD
      Duration : 1h 49mn
      Bit rate : 1 630 Kbps
      Width : 704 pixels
      Height : 384 pixels
      Display aspect ratio : 16:9
      Frame rate : 25.000 fps
      Resolution : 24 bits
      Colorimetry : 4:2:0
      Scan type : Progressive
      Bits/(Pixel*Frame) : 0.241
      Stream size : 1.25 GiB (92%)
      Writing library : XviD 1.2.1 (UTC 2008-12-04)
   Audio #1
      ID : 1
      Format : MPEG Audio
      Format version : Version 1
      Format profile : Layer 3
      Codec ID : 55
      Codec ID/Hint : MP3
      Duration : 1h 49mn
      Bit rate mode : Constant
      Bit rate : 128 Kbps
      Channel(s) : 2 channels
      Sampling rate : 48.0 KHz
      Resolution : 16 bits
      Stream size : 100 MiB (7%)
      Alignment : Aligned on interleaves
      Interleave, duration : 40 ms (1.00 video frame)
      Interleave, preload duration : 504 ms
 
http://www.imdb.com/title/tt0053318/

English audio; English, Spanish and Portuguese subtitles

Posted originally at KG by zoneyoutwonk